<?xml version="1.0" standalone="no"?><!DOCTYPE svg PUBLIC "-//W3C//DTD SVG 1.1//EN" "http://www.w3.org/Graphics/SVG/1.1/DTD/svg11.dtd"><svg t="1589559028821" class="icon" viewBox="0 0 1024 1024" version="1.1" xmlns="http://www.w3.org/2000/svg" p-id="1254" xmlns:xlink="http://www.w3.org/1999/xlink" width="128" height="128"><defs><style type="text/css"></style></defs><path d="M419.634 456.857h-13.492c-75.266 0-136.5-61.233-136.5-136.5v-13.493c0-75.266 61.234-136.5 136.5-136.5h13.492c75.266 0 136.5 61.234 136.5 136.5v13.493c0 75.267-61.234 136.5-136.5 136.5z m-13.492-226.492c-42.182 0-76.5 34.318-76.5 76.5v13.493c0 42.182 34.318 76.5 76.5 76.5h13.492c42.182 0 76.5-34.317 76.5-76.5v-13.493c0-42.182-34.318-76.5-76.5-76.5h-13.492zM620.678 853.185h-415.58C145.492 853.185 97 804.692 97 745.087v-17.705c0-61.589 24.132-119.64 67.951-163.459 43.819-43.818 101.87-67.95 163.458-67.95h168.957c61.589 0 119.64 24.132 163.459 67.95 43.818 43.819 67.95 101.87 67.95 163.459v17.705c0 59.605-48.492 108.098-108.097 108.098zM328.409 555.973C233.894 555.973 157 632.866 157 727.382v17.705c0 26.521 21.577 48.098 48.098 48.098h415.58c26.521 0 48.098-21.576 48.098-48.098v-17.705c0-94.516-76.894-171.409-171.409-171.409H328.409z" p-id="1255" fill="#ffffff"></path><path d="M599.376 457.274c-8.543 0-17.105-0.759-25.448-2.255-16.309-2.925-27.157-18.516-24.233-34.825 2.925-16.309 18.517-27.157 34.825-24.233a84.37 84.37 0 0 0 14.856 1.313c22.293 0 43.247-8.677 59.003-24.432 15.633-15.634 24.243-36.521 24.243-58.814s-8.61-43.18-24.244-58.814c-15.755-15.755-36.709-24.432-59.002-24.432a83.25 83.25 0 0 0-19.464 2.296c-16.111 3.878-32.311-6.039-36.188-22.146-3.877-16.108 6.038-32.31 22.146-36.188a143.353 143.353 0 0 1 33.505-3.962c38.319 0 74.341 14.918 101.429 42.005 26.967 26.967 41.817 62.921 41.817 101.241s-14.851 74.274-41.816 101.24c-27.088 27.088-63.11 42.006-101.429 42.006zM824.334 853.635h-58.511c-16.568 0-30-13.432-30-30s13.432-30 30-30h58.511c23.526 0 42.666-19.14 42.666-42.666v-37.371c0-86.36-69.978-156.682-156.211-157.23l-1.531 0.109c-16.51 1.177-30.879-11.263-32.058-27.79-1.179-16.526 11.263-30.879 27.789-32.058l3.709-0.265h1.068c57.78 0 112.258 22.641 153.397 63.751C904.329 601.252 927 655.76 927 713.598v37.371c0 56.61-46.056 102.666-102.666 102.666z" p-id="1256" fill="#ffffff"></path></svg>