<?xml version="1.0" standalone="no"?><!DOCTYPE svg PUBLIC "-//W3C//DTD SVG 1.1//EN" "http://www.w3.org/Graphics/SVG/1.1/DTD/svg11.dtd"><svg class="icon" width="128px" height="128.00px" viewBox="0 0 1024 1024" version="1.1" xmlns="http://www.w3.org/2000/svg"><path d="M869.18 716H649c-2.82 0-5.65-0.09-8.47 0a33.7 33.7 0 0 0-23.11 10.05c-21.18 21.12-42 42.62-63 63.93-20.81 21.12-42 41.92-62.46 63.37-0.36 0.39-0.74 0.75-1.11 1.13h42.33l-54.07-55-69.71-70.84c-5-5.1-9.73-9.24-17.06-11.62-4-1.3-8.61-1.07-12.84-1.07H229.54c-24.76 0-49.53 0.19-74.29 0a72.3 72.3 0 0 1-8.69-0.56l8 1.07a64 64 0 0 1-15.37-4.27l7.15 3a64 64 0 0 1-9.19-4.94c-0.72-0.48-1.42-1-2.14-1.47-3.42-2.28 3.1 2.21 3 2.3s-4.11-3.71-4.32-3.91c-1.21-1.22-2.27-2.63-3.5-3.82-2.29-2.22 4 5.7 2.28 3-0.47-0.72-1-1.4-1.5-2.12a63.19 63.19 0 0 1-5.3-9.73l3 7.15a64 64 0 0 1-4.27-15.37l1.07 8c-0.81-6.42-0.57-13-0.57-19.41V264.74c0-18.66-0.14-37.33 0-56a74.81 74.81 0 0 1 0.57-8.6l-1.07 8a64 64 0 0 1 4.27-15.37l-3 7.15a64 64 0 0 1 4.94-9.19c0.48-0.73 1-1.42 1.47-2.14 2.28-3.42-2.21 3.1-2.3 3s3.71-4.1 3.91-4.31c1.22-1.22 2.63-2.27 3.82-3.5 2.22-2.29-5.7 4-3 2.28 0.72-0.47 1.4-1 2.12-1.5a63.19 63.19 0 0 1 9.73-5.3l-7.15 3a64 64 0 0 1 15.31-4.26l-8 1.06c8.43-1.06 17.19-0.56 25.66-0.56H868.46a74.87 74.87 0 0 1 9 0.56l-8-1.06a64.17 64.17 0 0 1 15.37 4.27l-7.15-3a63 63 0 0 1 9.19 4.94c0.72 0.47 1.42 1 2.14 1.47 3.42 2.28-3.11-2.21-3-2.31s4.11 3.72 4.31 3.92c1.22 1.22 2.27 2.63 3.5 3.82 2.3 2.22-4-5.7-2.27-3 0.46 0.73 1 1.41 1.49 2.13a64.11 64.11 0 0 1 5.31 9.73l-3-7.15a64.51 64.51 0 0 1 4.27 15.37l-1.07-8c0.81 6.42 0.56 12.95 0.56 19.41v410.13c0 18.67 0.15 37.34 0 56a72.76 72.76 0 0 1-0.56 8.6l1.07-8a64.51 64.51 0 0 1-4.27 15.37l3-7.15a65 65 0 0 1-4.94 9.19c-0.48 0.72-1 1.42-1.48 2.14-2.27 3.42 2.22-3.1 2.31-3s-3.71 4.11-3.92 4.32c-1.21 1.21-2.62 2.27-3.81 3.5-2.22 2.29 5.69-4 3-2.28-0.73 0.46-1.41 1-2.12 1.5a64.05 64.05 0 0 1-9.73 5.3l7.15-3a64.17 64.17 0 0 1-15.37 4.27l8-1.07a71.13 71.13 0 0 1-8.24 0.56c-15.65 0.18-30.66 13.64-29.93 29.94 0.72 16.06 13.15 30.12 29.93 29.93 23.82-0.27 47.2-9.65 64-26.76a91.5 91.5 0 0 0 25.85-63V281.35v-71.53c-0.07-32.93-17.67-65.41-47.53-80.64-15-7.66-31-10.59-47.6-10.59H155.21a91.2 91.2 0 0 0-86.37 63.8c-3.76 11.9-3.84 24.09-3.84 36.36v463.48C65 707.58 73.35 732 91.76 750a91.39 91.39 0 0 0 63 25.85h229.59l-21.16-8.77L406.38 811l68.52 69.64 15.92 16.18c11.28 11.46 31 11.47 42.33 0l43.26-43.89L645 783.3l16-16.18-21.17 8.77h229.35c15.66 0 30.66-13.77 29.93-29.93S886 716 869.18 716z" fill="#0071C3" /><path d="M282.62 402.75h402.64c18.5 0 37 0.35 55.54 0h0.78c15.65 0 30.65-13.77 29.93-29.94s-13.15-29.93-29.93-29.93H338.94c-18.51 0-37.05-0.36-55.55 0h-0.77c-15.66 0-30.66 13.77-29.94 29.93s13.16 29.94 29.94 29.94zM282.62 552.08H555c15.66 0 30.66-13.77 29.93-29.93s-13.15-29.93-29.93-29.93H282.62c-15.62 0-30.62 13.78-29.94 29.93s13.16 29.93 29.94 29.93z" fill="#FD9A16" /></svg>