<?xml version="1.0" standalone="no"?><!DOCTYPE svg PUBLIC "-//W3C//DTD SVG 1.1//EN" "http://www.w3.org/Graphics/SVG/1.1/DTD/svg11.dtd"><svg class="icon" width="128px" height="128.00px" viewBox="0 0 1024 1024" version="1.1" xmlns="http://www.w3.org/2000/svg"><path d="M416.76 419.06H95.15l30.15 30.15V127.6l-30.15 30.15h321.61l-30.15-30.15v321.61c0 15.77 13.87 30.88 30.15 30.15s30.15-13.25 30.15-30.15V127.6c0-16.3-13.81-30.15-30.15-30.15H95.15C78.85 97.45 65 111.26 65 127.6v321.61c0 16.3 13.81 30.15 30.15 30.15h321.61c15.77 0 30.88-13.87 30.15-30.15s-13.25-30.15-30.15-30.15zM416.76 866.22H95.15l30.15 30.15v-321.6l-30.15 30.15h321.61l-30.15-30.15v321.6c0 15.77 13.87 30.88 30.15 30.15s30.15-13.24 30.15-30.15v-321.6c0-16.3-13.81-30.15-30.15-30.15H95.15c-16.3 0-30.15 13.81-30.15 30.15v321.6c0 16.3 13.81 30.15 30.15 30.15h321.61c15.77 0 30.88-13.86 30.15-30.15s-13.25-30.15-30.15-30.15z" fill="#0071C3" /><path d="M538.87 212.35h342c15.75 0 31.53 0.33 47.28 0h0.66c15.78 0 30.88-13.87 30.15-30.15s-13.24-30.15-30.15-30.15h-342c-15.75 0-31.54-0.33-47.28 0h-0.67c-15.77 0-30.88 13.87-30.15 30.15s13.25 30.15 30.15 30.15zM538.87 424h342c15.75 0 31.53 0.33 47.28 0h0.66c15.78 0 30.88-13.87 30.15-30.16s-13.24-30.15-30.15-30.15h-342c-15.75 0-31.54-0.33-47.28 0h-0.67c-15.77 0-30.88 13.87-30.15 30.15S522 424 538.87 424zM538.87 662.22h342c15.75 0 31.53 0.33 47.28 0h0.66c15.78 0 30.88-13.87 30.15-30.16s-13.24-30.15-30.15-30.15h-342c-15.75 0-31.54-0.33-47.28 0h-0.67c-15.77 0-30.88 13.87-30.15 30.15s13.25 30.16 30.15 30.16zM538.87 875h342c15.75 0 31.53 0.33 47.28 0h0.66c15.78 0 30.88-13.87 30.15-30.15s-13.24-30.15-30.15-30.15h-342c-15.75 0-31.54-0.34-47.28 0h-0.67c-15.77 0-30.88 13.86-30.15 30.15S522 875 538.87 875z" fill="#FD9A16" /></svg>