<?xml version="1.0" standalone="no"?><!DOCTYPE svg PUBLIC "-//W3C//DTD SVG 1.1//EN" "http://www.w3.org/Graphics/SVG/1.1/DTD/svg11.dtd"><svg class="icon" width="128px" height="128.00px" viewBox="0 0 1024 1024" version="1.1" xmlns="http://www.w3.org/2000/svg"><path d="M885.161 415.855c-20.4-48.23-49.598-91.54-86.783-128.725-37.185-37.185-80.494-66.382-128.725-86.782-49.949-21.126-102.992-31.839-157.653-31.839-54.662 0-107.704 10.712-157.653 31.839-48.231 20.4-91.54 49.598-128.725 86.782-37.185 37.185-66.383 80.494-86.782 128.725C117.712 465.805 107 518.848 107 573.509c0 44.233 7.093 87.732 21.083 129.29 5.286 15.702 22.3 24.144 38.003 18.861 15.703-5.286 24.147-22.302 18.861-38.004-8.695-25.828-14.245-52.555-16.616-79.775H199.5c16.568 0 30-13.432 30-30s-13.432-30-30-30h-31.214c6.212-72.681 35.047-138.996 79.425-191.862l22.105 22.105c5.858 5.858 13.535 8.787 21.213 8.787s15.355-2.929 21.213-8.787c11.716-11.716 11.715-30.71 0-42.426l-22.136-22.136c52.842-44.494 119.173-73.438 191.894-79.733v31.552c0 16.568 13.432 30 30 30s30-13.432 30-30v-31.552c72.721 6.295 139.052 35.239 191.894 79.733l-22.136 22.136c-11.716 11.716-11.716 30.71 0 42.426 5.858 5.859 13.534 8.787 21.213 8.787 7.677 0 15.355-2.93 21.213-8.787l22.105-22.105c44.378 52.866 73.213 119.181 79.425 191.862H824.5c-16.568 0-30 13.432-30 30s13.432 30 30 30h31.17c-2.412 27.701-8.119 54.886-17.08 81.138-5.353 15.681 3.021 32.73 18.7 38.083a29.91 29.91 0 0 0 9.694 1.616c12.479 0 24.133-7.849 28.389-20.316C909.724 662.359 917 618.32 917 573.509c0-54.661-10.712-107.704-31.839-157.654z"  /><path d="M538.404 494.777a31.285 31.285 0 0 0-28.781-19.023h-0.006c-12.539 0-23.837 7.463-28.787 19.022-6.299 14.724-21.505 92.121-30.008 136.945-6.861 36.168-22.82 122.423-22.82 142.154 0 45.003 36.612 81.615 81.614 81.615 45.003 0 81.615-36.612 81.615-81.615 0-19.731-15.959-105.986-22.82-142.154-8.502-44.824-23.708-122.221-30.007-136.944z m-28.787 300.714c-11.918 0-21.614-9.696-21.615-21.562 0.135-8.474 7.669-56.529 21.366-128.897l0.25-1.316 0.249 1.316c13.689 72.324 21.222 120.364 21.366 128.882-0.021 11.901-9.71 21.577-21.616 21.577z"  /></svg>
