<?xml version="1.0" standalone="no"?><!DOCTYPE svg PUBLIC "-//W3C//DTD SVG 1.1//EN" "http://www.w3.org/Graphics/SVG/1.1/DTD/svg11.dtd"><svg class="icon" width="128px" height="128.00px" viewBox="0 0 1024 1024" version="1.1" xmlns="http://www.w3.org/2000/svg"><path d="M825.549 554.465h-28.065V227.484c0-42.156-34.296-76.452-76.451-76.452H302.968c-42.156 0-76.452 34.296-76.452 76.452v326.981h-28.064c-42.156 0-76.452 34.296-76.452 76.451v165.601c0 42.155 34.296 76.451 76.452 76.451h627.097c42.155 0 76.451-34.296 76.451-76.451V630.916c0-42.155-34.296-76.451-76.451-76.451zM286.516 227.484c0-9.071 7.38-16.452 16.452-16.452h418.064c8.918 0 16.451 7.534 16.451 16.452v326.981H658.04c-29.906 0-57.226 17.592-69.599 44.815l-26.081 57.377H461.64l-26.081-57.377c-12.375-27.225-39.693-44.815-69.599-44.815h-79.444V227.484zM842 796.517c0 8.918-7.533 16.451-16.451 16.451H198.452c-9.071 0-16.452-7.38-16.452-16.451V630.916c0-9.071 7.38-16.451 16.452-16.451H365.96a16.487 16.487 0 0 1 14.977 9.644l27.886 61.348c8.615 18.954 27.635 31.201 48.455 31.201h109.444c20.819 0 39.839-12.247 48.455-31.201l27.887-61.349a16.486 16.486 0 0 1 14.977-9.643H825.55c8.918 0 16.451 7.534 16.451 16.451v165.601z"  /><path d="M639.983 345.791c16.568 0 30-13.432 30-30s-13.432-30-30-30H384.016c-16.568 0-30 13.432-30 30s13.432 30 30 30h255.967zM585.064 416H438.936c-16.568 0-30 13.432-30 30s13.432 30 30 30h146.129c16.568 0 30-13.432 30-30s-13.432-30-30.001-30z"  /></svg>
