<?xml version="1.0" standalone="no"?><!DOCTYPE svg PUBLIC "-//W3C//DTD SVG 1.1//EN" "http://www.w3.org/Graphics/SVG/1.1/DTD/svg11.dtd"><svg class="icon" width="128px" height="128.00px" viewBox="0 0 1024 1024" version="1.1" xmlns="http://www.w3.org/2000/svg"><path d="M881.631 611a29.459 29.459 0 0 0 1.466-2.107 29.47 29.47 0 0 0 1.046-1.766c0.057-0.106 0.11-0.214 0.166-0.32 0.355-0.673 0.69-1.358 0.994-2.06l0.011-0.024c0.333-0.77 0.629-1.558 0.898-2.36l0.029-0.083c0.265-0.799 0.496-1.613 0.695-2.441l0.016-0.056c0.038-0.161 0.073-0.323 0.111-0.483 0.023-0.107 0.051-0.212 0.073-0.319 6.542-27.717 9.864-56.934 9.864-86.862 0-28.789-3.313-58.047-9.841-86.973-0.036-0.177-0.077-0.352-0.116-0.528l-0.019-0.088-0.02-0.078a29.99 29.99 0 0 0-0.351-1.381l-0.031-0.106c-0.126-0.442-0.26-0.879-0.405-1.312-0.023-0.07-0.048-0.139-0.072-0.209a30.72 30.72 0 0 0-0.418-1.146c-0.047-0.121-0.096-0.241-0.144-0.361a30.08 30.08 0 0 0-1.342-2.873 28.446 28.446 0 0 0-1-1.732 28.732 28.732 0 0 0-0.764-1.166 31.65 31.65 0 0 0-0.656-0.916l-0.173-0.229a30.193 30.193 0 0 0-0.719-0.909l-0.179-0.214a29.277 29.277 0 0 0-1.717-1.877l-0.299-0.295a29.43 29.43 0 0 0-0.703-0.666c-0.136-0.124-0.274-0.246-0.411-0.368a29.482 29.482 0 0 0-2.402-1.91c-0.141-0.101-0.282-0.202-0.425-0.3a31.255 31.255 0 0 0-0.839-0.557c-0.107-0.069-0.214-0.138-0.322-0.205a31.034 31.034 0 0 0-0.964-0.576c-0.081-0.047-0.162-0.094-0.244-0.139a31.172 31.172 0 0 0-2.356-1.187l-0.208-0.094c-0.362-0.16-0.728-0.312-1.098-0.457l-0.261-0.102a30.824 30.824 0 0 0-2.882-0.94 29.969 29.969 0 0 0-2.143-0.496 30.874 30.874 0 0 0-1.375-0.233 28.996 28.996 0 0 0-1.417-0.172 28.963 28.963 0 0 0-1.253-0.095l-0.219-0.012c-0.434-0.021-0.87-0.031-1.307-0.033l-0.132-0.003-0.464 0.001h-0.219c-31.479-0.001-60.771-16.893-76.53-44.174-15.796-27.347-15.653-61.304 0.372-88.621l0.058-0.105c0.226-0.388 0.443-0.779 0.649-1.174l0.084-0.162c0.2-0.387 0.391-0.777 0.572-1.171l0.11-0.241c0.16-0.356 0.313-0.713 0.459-1.074 0.052-0.129 0.104-0.257 0.154-0.386 0.118-0.305 0.232-0.611 0.339-0.919a25.305 25.305 0 0 0 0.425-1.305 27.35 27.35 0 0 0 0.364-1.317c0.078-0.308 0.151-0.616 0.219-0.925 0.029-0.136 0.057-0.271 0.084-0.407 0.073-0.356 0.14-0.713 0.199-1.07 0.016-0.096 0.03-0.193 0.045-0.289 0.061-0.39 0.115-0.779 0.16-1.17l0.024-0.227c0.044-0.404 0.08-0.809 0.107-1.214l0.013-0.224c0.024-0.401 0.041-0.803 0.049-1.204 0.002-0.09 0.001-0.179 0.002-0.269 0.004-0.38 0.002-0.76-0.008-1.14-0.003-0.125-0.01-0.249-0.015-0.374-0.014-0.34-0.031-0.68-0.056-1.02-0.013-0.174-0.03-0.347-0.046-0.521a27.582 27.582 0 0 0-0.089-0.861c-0.028-0.23-0.061-0.458-0.094-0.687-0.033-0.228-0.065-0.457-0.104-0.684a27.105 27.105 0 0 0-0.158-0.851c-0.034-0.171-0.066-0.343-0.103-0.513a30.32 30.32 0 0 0-0.233-0.991c-0.031-0.122-0.06-0.245-0.092-0.367-0.097-0.366-0.202-0.73-0.313-1.093l-0.079-0.259c-0.12-0.383-0.25-0.763-0.386-1.141-0.025-0.07-0.049-0.14-0.075-0.209-0.14-0.38-0.289-0.757-0.444-1.132l-0.089-0.216c-0.153-0.36-0.314-0.716-0.481-1.071l-0.128-0.272a30.073 30.073 0 0 0-0.49-0.964c-0.066-0.124-0.131-0.249-0.199-0.372a37.094 37.094 0 0 0-0.77-1.325 26.99 26.99 0 0 0-0.419-0.658 27.859 27.859 0 0 0-0.778-1.134 31.27 31.27 0 0 0-0.842-1.114 28.89 28.89 0 0 0-0.744-0.901l-0.172-0.199a29.5 29.5 0 0 0-0.88-0.963l-0.126-0.132c-0.31-0.321-0.629-0.636-0.956-0.945-0.029-0.027-0.055-0.056-0.084-0.083-0.061-0.058-0.124-0.114-0.185-0.171-0.116-0.107-0.229-0.216-0.347-0.322-42.573-39.853-94.662-69.947-150.727-87.081-0.149-0.049-0.299-0.093-0.448-0.14l-0.228-0.071-0.12-0.033a29.553 29.553 0 0 0-1.286-0.355l-0.192-0.047a30.512 30.512 0 0 0-1.253-0.279l-0.286-0.056a29.203 29.203 0 0 0-3.143-0.425 29.721 29.721 0 0 0-2.095-0.097 30.405 30.405 0 0 0-1.002 0.004l-0.363 0.011a28.8 28.8 0 0 0-1.14 0.06l-0.239 0.019c-0.412 0.033-0.822 0.074-1.23 0.124l-0.167 0.022a29.84 29.84 0 0 0-1.269 0.19l-0.149 0.027c-0.419 0.074-0.836 0.157-1.251 0.248l-0.192 0.044c-0.394 0.09-0.786 0.187-1.175 0.292l-0.288 0.081c-0.352 0.099-0.702 0.203-1.05 0.315-0.139 0.045-0.277 0.093-0.416 0.139-0.3 0.101-0.599 0.205-0.895 0.316-0.188 0.07-0.374 0.145-0.561 0.219-0.243 0.096-0.485 0.193-0.725 0.296-0.236 0.1-0.469 0.207-0.703 0.313-0.187 0.086-0.374 0.17-0.56 0.26-0.277 0.133-0.552 0.274-0.825 0.416-0.139 0.073-0.279 0.144-0.418 0.219-0.305 0.165-0.607 0.337-0.907 0.513-0.105 0.062-0.211 0.122-0.315 0.185-0.319 0.192-0.633 0.391-0.945 0.595-0.086 0.056-0.173 0.112-0.258 0.169-0.315 0.21-0.624 0.428-0.932 0.651-0.084 0.061-0.169 0.121-0.252 0.183a29.86 29.86 0 0 0-0.873 0.675c-0.096 0.077-0.193 0.154-0.288 0.232-0.262 0.215-0.521 0.437-0.776 0.662a27.55 27.55 0 0 0-1.979 1.909 28.962 28.962 0 0 0-2.534 3.065l-0.143 0.2c-0.254 0.359-0.5 0.724-0.74 1.096l-0.089 0.139c-0.242 0.38-0.475 0.767-0.7 1.16-0.019 0.034-0.041 0.066-0.06 0.1-15.712 27.586-45.171 44.724-76.882 44.724-31.527 0-61.016-17.187-76.956-44.854l-0.049-0.08c-0.23-0.397-0.468-0.787-0.714-1.17l-0.079-0.123a29.514 29.514 0 0 0-0.755-1.107c-0.042-0.059-0.083-0.117-0.126-0.175a27.672 27.672 0 0 0-0.731-0.963c-0.074-0.094-0.148-0.189-0.224-0.282a30.392 30.392 0 0 0-0.656-0.78c-0.12-0.138-0.239-0.276-0.361-0.412-0.18-0.199-0.363-0.394-0.548-0.588-0.171-0.18-0.342-0.36-0.517-0.536-0.14-0.14-0.283-0.276-0.425-0.413-0.224-0.216-0.45-0.43-0.68-0.639-0.101-0.091-0.203-0.179-0.305-0.268-0.274-0.241-0.55-0.479-0.832-0.709-0.067-0.055-0.136-0.108-0.204-0.162a29.668 29.668 0 0 0-0.961-0.743l-0.135-0.097a30.116 30.116 0 0 0-1.053-0.736l-0.117-0.076c-0.36-0.237-0.724-0.468-1.094-0.689l-0.157-0.091a30.744 30.744 0 0 0-1.074-0.607c-0.086-0.046-0.174-0.089-0.26-0.135a28.75 28.75 0 0 0-0.992-0.5c-0.138-0.066-0.278-0.127-0.417-0.191-0.284-0.13-0.569-0.26-0.857-0.382-0.203-0.086-0.408-0.165-0.613-0.246-0.227-0.09-0.453-0.181-0.682-0.266-0.271-0.1-0.545-0.192-0.819-0.284-0.167-0.056-0.334-0.115-0.502-0.168a31.076 31.076 0 0 0-1.001-0.295c-0.116-0.032-0.231-0.067-0.347-0.098a29.464 29.464 0 0 0-1.138-0.277c-0.079-0.018-0.158-0.038-0.237-0.055a31 31 0 0 0-1.215-0.235c-0.064-0.011-0.127-0.024-0.191-0.034a29.551 29.551 0 0 0-1.224-0.177l-0.212-0.028a28.239 28.239 0 0 0-1.17-0.112c-0.099-0.008-0.198-0.017-0.298-0.024a28.484 28.484 0 0 0-1.056-0.05c-0.148-0.005-0.295-0.011-0.443-0.014a29.806 29.806 0 0 0-0.897 0.001c-0.209 0.002-0.418 0.004-0.628 0.011a28.74 28.74 0 0 0-0.715 0.035 23.134 23.134 0 0 0-1.351 0.108c-0.343 0.035-0.686 0.075-1.029 0.122l-0.346 0.051c-0.4 0.06-0.8 0.127-1.199 0.204-0.07 0.013-0.14 0.028-0.209 0.042a29.994 29.994 0 0 0-2.769 0.691l-0.095 0.026c-0.135 0.041-0.27 0.085-0.406 0.126-0.119 0.038-0.239 0.072-0.358 0.112-55.807 17.071-107.782 47.154-150.405 87.055-0.117 0.105-0.23 0.214-0.346 0.32l-0.186 0.172c-0.029 0.027-0.055 0.056-0.084 0.083a30.387 30.387 0 0 0-1.082 1.077c-0.3 0.314-0.593 0.634-0.877 0.96l-0.176 0.203c-0.253 0.295-0.5 0.594-0.741 0.897l-0.259 0.33a29.542 29.542 0 0 0-1.361 1.919c-0.143 0.218-0.283 0.438-0.419 0.659-0.102 0.166-0.201 0.333-0.3 0.5a30.7 30.7 0 0 0-0.471 0.825c-0.067 0.122-0.131 0.245-0.196 0.368-0.17 0.321-0.335 0.643-0.492 0.968-0.043 0.089-0.084 0.179-0.126 0.268-0.168 0.356-0.329 0.713-0.482 1.074l-0.089 0.214a28.91 28.91 0 0 0-0.445 1.133c-0.026 0.07-0.05 0.14-0.075 0.211-0.136 0.378-0.266 0.757-0.386 1.14-0.028 0.087-0.053 0.175-0.08 0.263-0.11 0.362-0.216 0.725-0.312 1.09-0.033 0.123-0.062 0.246-0.093 0.37-0.082 0.328-0.161 0.657-0.232 0.988-0.037 0.172-0.07 0.345-0.104 0.517-0.055 0.282-0.11 0.564-0.157 0.847-0.039 0.23-0.071 0.461-0.105 0.691-0.032 0.226-0.065 0.453-0.093 0.68-0.035 0.288-0.063 0.578-0.089 0.867-0.016 0.172-0.033 0.344-0.045 0.516-0.025 0.341-0.042 0.682-0.056 1.024-0.005 0.123-0.011 0.246-0.015 0.37-0.011 0.381-0.012 0.763-0.008 1.146l0.002 0.263c0.008 0.405 0.025 0.81 0.049 1.214l0.012 0.21c0.027 0.408 0.064 0.815 0.108 1.223l0.023 0.221c0.045 0.392 0.1 0.783 0.161 1.174l0.045 0.285c0.06 0.36 0.128 0.718 0.201 1.077 0.027 0.132 0.053 0.265 0.082 0.397 0.068 0.313 0.143 0.625 0.222 0.937 0.046 0.184 0.093 0.367 0.143 0.551a32.2 32.2 0 0 0 0.449 1.492 32.978 32.978 0 0 0 0.532 1.483 33.934 33.934 0 0 0 0.612 1.459l0.118 0.259c0.179 0.388 0.367 0.772 0.564 1.153l0.092 0.178c0.204 0.389 0.418 0.775 0.64 1.157 0.022 0.038 0.041 0.077 0.063 0.114 16.026 27.316 16.168 61.274 0.372 88.621-15.76 27.284-45.136 44.175-76.763 44.174h-0.172l-0.515-0.001c-0.049 0-0.098 0.003-0.148 0.004-0.427 0.002-0.853 0.012-1.278 0.032l-0.25 0.013a30.79 30.79 0 0 0-1.219 0.092l-0.344 0.035a29.55 29.55 0 0 0-1.071 0.136c-0.167 0.024-0.332 0.05-0.498 0.076a30.837 30.837 0 0 0-2.218 0.447 29.64 29.64 0 0 0-2.307 0.653l-0.326 0.11c-0.365 0.124-0.728 0.255-1.086 0.392l-0.219 0.086c-0.384 0.151-0.763 0.308-1.139 0.474l-0.166 0.075a30.47 30.47 0 0 0-1.14 0.54l-0.163 0.083c-0.368 0.187-0.732 0.38-1.09 0.582l-0.211 0.121c-0.336 0.192-0.668 0.39-0.996 0.594-0.098 0.061-0.194 0.124-0.291 0.186a31.87 31.87 0 0 0-0.869 0.576c-0.134 0.092-0.266 0.188-0.399 0.282-0.242 0.173-0.482 0.348-0.718 0.527a32.103 32.103 0 0 0-2.116 1.767c-0.235 0.215-0.466 0.436-0.695 0.659-0.102 0.1-0.205 0.2-0.306 0.301-0.252 0.252-0.498 0.51-0.741 0.772-0.075 0.081-0.151 0.162-0.225 0.244a29.396 29.396 0 0 0-1.65 1.985l-0.17 0.224c-0.226 0.302-0.445 0.61-0.66 0.921l-0.191 0.28a29.176 29.176 0 0 0-1.276 2.079 30.5 30.5 0 0 0-0.647 1.221 29.347 29.347 0 0 0-0.984 2.181c-0.05 0.125-0.101 0.25-0.15 0.376-0.145 0.373-0.282 0.75-0.412 1.13l-0.078 0.226c-0.143 0.427-0.275 0.858-0.399 1.294-0.012 0.042-0.025 0.083-0.036 0.125-0.126 0.45-0.241 0.905-0.346 1.364-0.007 0.03-0.016 0.058-0.022 0.088l-0.022 0.099c-0.038 0.17-0.077 0.34-0.112 0.511-6.528 28.928-9.842 58.188-9.842 86.978 0 29.928 3.321 59.144 9.863 86.859 0.025 0.118 0.055 0.234 0.081 0.351 0.036 0.151 0.069 0.303 0.105 0.454 0.004 0.018 0.011 0.034 0.015 0.052a29.641 29.641 0 0 0 0.721 2.519c0.27 0.806 0.568 1.599 0.903 2.373l0.002 0.005c0.308 0.712 0.647 1.407 1.008 2.088 0.053 0.1 0.102 0.201 0.155 0.3 0.331 0.609 0.686 1.202 1.057 1.785a30.848 30.848 0 0 0 1.465 2.106c0.139 0.182 0.283 0.359 0.426 0.538 0.382 0.477 0.774 0.945 1.183 1.397 0.134 0.147 0.271 0.291 0.407 0.435 0.405 0.43 0.824 0.848 1.254 1.253 0.124 0.117 0.244 0.236 0.37 0.35a29.845 29.845 0 0 0 1.927 1.61 29.91 29.91 0 0 0 1.783 1.276l0.142 0.091a29.93 29.93 0 0 0 4.152 2.261l0.129 0.058a29.68 29.68 0 0 0 2.175 0.859l0.171 0.057a29.84 29.84 0 0 0 4.386 1.139c0.178 0.032 0.356 0.066 0.535 0.095 0.653 0.105 1.312 0.19 1.977 0.253 0.242 0.023 0.486 0.038 0.729 0.055 0.549 0.038 1.101 0.062 1.657 0.07 0.142 0.002 0.283 0.018 0.425 0.018 0.083 0 0.167-0.007 0.249-0.007 31.768-0.182 61.385 16.759 77.221 44.173 15.797 27.347 15.654 61.304-0.372 88.62l-0.06 0.108c-0.225 0.386-0.44 0.775-0.646 1.168l-0.087 0.168a29.694 29.694 0 0 0-1.138 2.477c-0.054 0.132-0.106 0.264-0.158 0.396a32.062 32.062 0 0 0-0.533 1.484 31.19 31.19 0 0 0-0.897 3.382c-0.073 0.357-0.14 0.714-0.2 1.073-0.016 0.096-0.03 0.193-0.045 0.289-0.061 0.39-0.115 0.78-0.16 1.171l-0.024 0.224c-0.044 0.407-0.081 0.813-0.108 1.22l-0.012 0.212c-0.024 0.405-0.042 0.809-0.049 1.213-0.002 0.088-0.001 0.175-0.002 0.263-0.004 0.382-0.002 0.764 0.008 1.146 0.003 0.123 0.01 0.245 0.015 0.368 0.014 0.343 0.031 0.685 0.056 1.026 0.013 0.171 0.03 0.341 0.045 0.512 0.027 0.291 0.055 0.582 0.09 0.872 0.027 0.225 0.06 0.449 0.092 0.674 0.034 0.233 0.067 0.466 0.106 0.698 0.047 0.28 0.101 0.559 0.155 0.838 0.035 0.175 0.068 0.351 0.106 0.526 0.07 0.327 0.149 0.653 0.23 0.978 0.032 0.127 0.062 0.254 0.096 0.38 0.095 0.361 0.199 0.719 0.308 1.077 0.028 0.092 0.055 0.185 0.084 0.277 0.119 0.378 0.247 0.753 0.381 1.126l0.08 0.224c0.138 0.375 0.286 0.748 0.439 1.118 0.032 0.076 0.062 0.153 0.095 0.229 0.151 0.355 0.31 0.708 0.475 1.058l0.134 0.285c0.155 0.319 0.316 0.636 0.483 0.951 0.068 0.129 0.136 0.259 0.207 0.387 0.148 0.271 0.302 0.539 0.459 0.805a28.675 28.675 0 0 0 0.719 1.16c0.146 0.224 0.294 0.446 0.445 0.666a30.39 30.39 0 0 0 1.931 2.501l0.159 0.184a29.467 29.467 0 0 0 1.977 2.055c0.025 0.024 0.048 0.049 0.074 0.073l0.165 0.153c0.124 0.115 0.246 0.232 0.372 0.345 43.204 40.447 95.498 70.638 151.28 87.324l0.062 0.016c1.358 0.404 2.73 0.707 4.109 0.912l0.264 0.039c0.666 0.093 1.332 0.17 1.999 0.217 0.056 0.004 0.111 0.005 0.167 0.008 0.56 0.037 1.12 0.055 1.68 0.061 0.109 0.001 0.219 0.012 0.327 0.012 0.093 0 0.185-0.01 0.278-0.011 0.645-0.007 1.288-0.03 1.93-0.078 0.209-0.016 0.417-0.04 0.626-0.06 0.508-0.049 1.014-0.11 1.518-0.185 0.199-0.029 0.398-0.053 0.596-0.086a29.816 29.816 0 0 0 1.826-0.372 30.669 30.669 0 0 0 2.495-0.689c0.129-0.042 0.256-0.09 0.384-0.133a29.752 29.752 0 0 0 1.772-0.665c0.083-0.034 0.167-0.065 0.25-0.101 0.664-0.28 1.316-0.588 1.959-0.916l0.217-0.113a29.913 29.913 0 0 0 3.855-2.391l0.067-0.048c0.608-0.447 1.2-0.918 1.776-1.413l0.13-0.115c0.552-0.48 1.09-0.979 1.61-1.503l0.06-0.058a29.934 29.934 0 0 0 1.781-1.985c0.409-0.497 0.808-1.003 1.188-1.531 0.128-0.177 0.246-0.362 0.37-0.543 0.266-0.387 0.524-0.781 0.774-1.183 0.144-0.232 0.289-0.463 0.427-0.7 0.03-0.052 0.063-0.101 0.093-0.152 15.94-27.667 45.428-44.854 76.956-44.854 31.711 0 61.17 17.137 76.882 44.724 0.037 0.065 0.08 0.125 0.117 0.19 0.21 0.363 0.433 0.715 0.656 1.066 0.18 0.283 0.361 0.565 0.549 0.84a28.588 28.588 0 0 0 1.388 1.864c0.211 0.262 0.421 0.525 0.64 0.779 0.332 0.385 0.676 0.755 1.024 1.121 0.147 0.154 0.287 0.314 0.438 0.464a29.736 29.736 0 0 0 3.413 2.942c0.103 0.076 0.209 0.147 0.313 0.221a29.826 29.826 0 0 0 1.993 1.316c0.484 0.292 0.975 0.57 1.473 0.834 0.175 0.093 0.348 0.187 0.525 0.276a29.31 29.31 0 0 0 1.557 0.727c0.16 0.07 0.317 0.146 0.478 0.213 0.663 0.275 1.335 0.529 2.015 0.756 0.218 0.073 0.442 0.13 0.662 0.198 0.461 0.142 0.923 0.28 1.39 0.4 0.326 0.084 0.655 0.154 0.983 0.227 0.373 0.082 0.746 0.16 1.122 0.229 0.351 0.064 0.702 0.121 1.055 0.173 0.379 0.055 0.758 0.098 1.139 0.139 0.339 0.036 0.678 0.075 1.019 0.1 0.527 0.038 1.055 0.054 1.584 0.064 0.175 0.003 0.348 0.021 0.523 0.021 0.127 0 0.255-0.012 0.382-0.014a29.765 29.765 0 0 0 1.662-0.06c0.178-0.012 0.356-0.035 0.534-0.051a29.454 29.454 0 0 0 1.562-0.17c0.169-0.024 0.339-0.055 0.508-0.081 0.535-0.084 1.068-0.18 1.6-0.293 0.161-0.034 0.321-0.072 0.482-0.109 0.536-0.123 1.07-0.262 1.602-0.416 0.092-0.027 0.184-0.044 0.276-0.072 56.007-16.754 108.382-46.944 151.515-87.324 0.127-0.113 0.249-0.23 0.373-0.345l0.164-0.152 0.074-0.073c0.332-0.314 0.656-0.633 0.971-0.96l0.114-0.119c0.305-0.319 0.602-0.644 0.891-0.974l0.163-0.188a29.526 29.526 0 0 0 1.935-2.508 30.47 30.47 0 0 0 2.438-4.235c0.168-0.356 0.329-0.713 0.482-1.074 0.03-0.07 0.058-0.141 0.087-0.211 0.156-0.377 0.306-0.755 0.446-1.137l0.073-0.204c0.137-0.38 0.267-0.762 0.388-1.147 0.027-0.084 0.051-0.169 0.077-0.254 0.111-0.365 0.217-0.731 0.315-1.099 0.032-0.12 0.06-0.241 0.091-0.361 0.083-0.331 0.163-0.663 0.234-0.996 0.036-0.169 0.069-0.339 0.102-0.508 0.056-0.285 0.111-0.57 0.159-0.856 0.038-0.226 0.07-0.453 0.103-0.68 0.033-0.23 0.067-0.46 0.094-0.691 0.035-0.285 0.062-0.572 0.088-0.858 0.016-0.174 0.033-0.348 0.046-0.523 0.025-0.339 0.042-0.678 0.056-1.018l0.015-0.375c0.011-0.38 0.012-0.76 0.008-1.14l-0.002-0.269a30.406 30.406 0 0 0-0.049-1.205l-0.013-0.222c-0.027-0.405-0.064-0.81-0.108-1.215l-0.024-0.226c-0.045-0.391-0.1-0.782-0.161-1.172-0.015-0.096-0.029-0.191-0.045-0.286a30.636 30.636 0 0 0-1.098-4.457 31.87 31.87 0 0 0-0.534-1.487c-0.05-0.129-0.102-0.258-0.154-0.387a30.6 30.6 0 0 0-1.142-2.486l-0.082-0.159a30.172 30.172 0 0 0-0.651-1.178c-0.02-0.034-0.037-0.069-0.057-0.102-16.025-27.317-16.168-61.275-0.372-88.621 15.76-27.283 45.05-44.175 76.532-44.175l0.444 0.001c0.086 0.001 0.172 0.008 0.258 0.008 0.144 0 0.285-0.016 0.429-0.018a29.889 29.889 0 0 0 1.647-0.07c0.248-0.017 0.495-0.033 0.742-0.056a29.476 29.476 0 0 0 1.963-0.251c0.187-0.03 0.372-0.065 0.558-0.099a29.7 29.7 0 0 0 4.348-1.129l0.208-0.07a29.95 29.95 0 0 0 2.145-0.847l0.165-0.074a29.999 29.999 0 0 0 4.108-2.237c0.059-0.038 0.119-0.075 0.178-0.114a29.792 29.792 0 0 0 2.129-1.548 29.785 29.785 0 0 0 1.559-1.321c0.136-0.123 0.266-0.252 0.399-0.378a31.352 31.352 0 0 0 1.674-1.706 29.2 29.2 0 0 0 1.139-1.345c0.169-0.192 0.319-0.377 0.464-0.567z m-153.026 25.982c-22.318 38.638-25.727 85.096-10.295 126.177-27.491 22.581-58.599 40.567-91.601 52.964-27.929-33.953-69.98-54.265-114.71-54.265-44.524 0-86.56 20.322-114.631 54.286-32.876-12.365-63.931-30.357-91.445-52.979 15.435-41.083 12.027-87.543-10.293-126.183-22.359-38.709-61.004-64.955-104.428-72.159-2.788-17.048-4.203-34.695-4.203-52.706 0-17.499 1.461-35.238 4.339-52.964 43.367-7.237 81.957-33.47 104.292-72.137 22.318-38.636 25.728-85.091 10.297-126.171 27.348-22.439 58.417-40.415 91.489-52.934 28.072 33.93 70.085 54.229 114.583 54.229 44.704 0 86.732-20.289 114.662-54.207 33.199 12.551 64.32 30.521 91.645 52.918-15.427 41.078-12.017 87.531 10.299 126.165 22.326 38.648 60.82 64.876 104.054 72.128 2.879 17.728 4.34 35.47 4.34 52.973 0 18.013-1.415 35.664-4.205 52.717-43.286 7.222-81.842 33.464-104.189 72.148z"  /><path d="M512 363.667c-81.792 0-148.333 66.542-148.333 148.333S430.209 660.333 512 660.333 660.333 593.791 660.333 512c0-81.792-66.542-148.333-148.333-148.333z m0 236.666c-48.707 0-88.333-39.626-88.333-88.333s39.626-88.333 88.333-88.333 88.333 39.626 88.333 88.333-39.626 88.333-88.333 88.333z"  /></svg>
