<?xml version="1.0" standalone="no"?><!DOCTYPE svg PUBLIC "-//W3C//DTD SVG 1.1//EN" "http://www.w3.org/Graphics/SVG/1.1/DTD/svg11.dtd"><svg class="icon" width="128px" height="128.00px" viewBox="0 0 1024 1024" version="1.1" xmlns="http://www.w3.org/2000/svg"><path fill="#333333" d="M749.458 910.962H274.542c-65.065 0-118-52.935-118-118V461.706c0-31.462 12.237-61.057 34.456-83.333l60.441-60.594 163.735-163.736c54.587-54.585 143.405-54.584 197.99 0l219.732 219.732c22.287 22.287 34.562 51.919 34.562 83.439v335.748c0 65.065-52.935 118-118 118zM514.169 173.076c-20.486 0-40.972 7.798-56.568 23.394L293.892 360.179l-60.414 60.566c-10.921 10.949-16.936 25.496-16.936 40.96v331.256c0 31.981 26.019 58 58 58h474.917c31.981 0 58-26.019 58-58V457.214c0-15.493-6.033-30.058-16.987-41.012L570.738 196.47c-15.596-15.596-36.083-23.394-56.569-23.394z"  /><path fill="#333333" d="M518.61 793.237c-68.643 0-124.487-55.845-124.487-124.488s55.845-124.488 124.487-124.488c68.644 0 124.488 55.845 124.488 124.488S587.254 793.237 518.61 793.237z m0-188.976c-35.559 0-64.487 28.93-64.487 64.488s28.929 64.488 64.487 64.488 64.488-28.93 64.488-64.488-28.929-64.488-64.488-64.488z"  /></svg>