<?xml version="1.0" standalone="no"?><!DOCTYPE svg PUBLIC "-//W3C//DTD SVG 1.1//EN" "http://www.w3.org/Graphics/SVG/1.1/DTD/svg11.dtd"><svg class="icon" width="128px" height="128.00px" viewBox="0 0 1024 1024" version="1.1" xmlns="http://www.w3.org/2000/svg"><path d="M512 451.208c-90.763 0-164.604-73.841-164.604-164.604S421.237 122 512 122c90.763 0 164.604 73.841 164.604 164.604S602.763 451.208 512 451.208zM512 182c-57.679 0-104.604 46.925-104.604 104.604S454.321 391.208 512 391.208s104.604-46.925 104.604-104.604S569.679 182 512 182zM754.843 902H269.157c-64.136 0-116.314-52.179-116.314-116.314v-44.352c0-67.226 26.343-130.591 74.176-178.424 47.833-47.832 111.198-74.175 178.423-74.175h213.116c67.227 0 130.592 26.343 178.425 74.176 47.832 47.832 74.175 111.197 74.175 178.423v44.352C871.157 849.821 818.979 902 754.843 902zM405.442 548.735c-106.2 0-192.599 86.399-192.599 192.599v44.352c0 31.052 25.263 56.314 56.314 56.314h485.686c31.052 0 56.314-25.263 56.314-56.314v-44.352c0-106.199-86.399-192.599-192.6-192.599H405.442z" /></svg>
