<?xml version="1.0" standalone="no"?><!DOCTYPE svg PUBLIC "-//W3C//DTD SVG 1.1//EN" "http://www.w3.org/Graphics/SVG/1.1/DTD/svg11.dtd"><svg class="icon" width="128px" height="128.00px" viewBox="0 0 1024 1024" version="1.1" xmlns="http://www.w3.org/2000/svg"><path d="M746.37 820.44l2.48-1.87 0.27-0.22a317.18 317.18 0 0 0-3.22 2.43c0.16-0.11 0.32-0.22 0.47-0.34zM820.42 277.65c-0.62-0.83-1.25-1.66-1.88-2.48l-0.22-0.27c1.74 2.32 2.38 3.16 2.44 3.21-0.12-0.11-0.23-0.31-0.34-0.46zM203.6 746.39c0.62 0.83 1.25 1.66 1.88 2.48l0.22 0.27c-1.74-2.32-2.38-3.15-2.44-3.21 0.12 0.15 0.23 0.31 0.34 0.46z" fill="#0071C3" /><path d="M834.48 821.57c62.16-64.94 105-149 118.63-238A477.81 477.81 0 0 0 959 512c-0.15-91.36-28.31-182.7-81.48-257.19A454.92 454.92 0 0 0 663.13 91.3c-86.7-31.69-184.24-34.6-273-9.48-85.84 24.31-164.65 75.18-221.42 144.11A464.24 464.24 0 0 0 97.08 346c-17.47 42.63-27.34 88-30.84 133.89-6.95 91.27 15.54 184.74 63 263 46 76 115.18 138.67 196.27 175.28a461.44 461.44 0 0 0 137.91 38 436.42 436.42 0 0 0 105.79-0.94h320.04c15.7 0 30.73-13.8 30-30s-13.18-30-30-30H742.09a447.55 447.55 0 0 0 92.39-73.66z m-14.06-75.18l-1.53 2c-3 3.84-6.1 7.65-9.26 11.39a421.59 421.59 0 0 1-43.91 44.74q-5.41 4.74-11 9.3c-1.86 1.52-3.74 3-5.62 4.51l1.42-1.07-1.69 1.29-0.23 0.18c-1 0.78-2.8 2.12-2.72 2q-11.85 8.85-24.31 16.83a419.78 419.78 0 0 1-59.49 31.62 419.62 419.62 0 0 1-94 26.09 28.63 28.63 0 0 0-5.46 0.78 426.67 426.67 0 0 1-102.7-0.17 419.28 419.28 0 0 1-98.23-26.79 418.37 418.37 0 0 1-52.61-27.34q-13.42-8.24-26.18-17.48-2.65-1.92-5.28-3.88l-2-1.52c-3.83-3-7.64-6.11-11.38-9.27a418.73 418.73 0 0 1-44.74-43.91q-4.74-5.4-9.3-11-2.28-2.79-4.51-5.63l1.07 1.43-1.29-1.7-0.18-0.23c-0.78-1-2.12-2.8-2-2.71q-8.83-11.86-16.82-24.32a418.7 418.7 0 0 1-31.61-59.49 419.38 419.38 0 0 1-26.71-98 426.89 426.89 0 0 1 0-104.14 419.28 419.28 0 0 1 26.79-98.23 419.18 419.18 0 0 1 27.34-52.62q8.24-13.41 17.47-26.18c1.28-1.77 2.58-3.52 3.88-5.27l1.53-2c3-3.84 6.1-7.65 9.26-11.39a420.65 420.65 0 0 1 43.88-44.71q5.42-4.74 11-9.3c1.86-1.52 3.74-3 5.62-4.51l-1.42 1.07 1.69-1.29 0.23-0.18c1-0.78 2.8-2.12 2.72-2q11.85-8.85 24.31-16.83a419.78 419.78 0 0 1 59.49-31.62 419.58 419.58 0 0 1 98-26.7 426.73 426.73 0 0 1 104.12 0 419.28 419.28 0 0 1 98.24 26.76 418.37 418.37 0 0 1 52.61 27.34q13.43 8.23 26.18 17.48 2.65 1.92 5.28 3.88l2 1.52c3.83 3 7.64 6.11 11.38 9.27a418.73 418.73 0 0 1 44.74 43.91q4.74 5.4 9.3 11 2.28 2.79 4.51 5.63l-1.07-1.43 1.29 1.7 0.18 0.23c0.78 1 2.12 2.8 2 2.71q8.84 11.86 16.82 24.32a418.7 418.7 0 0 1 31.61 59.49 419.32 419.32 0 0 1 26.71 98 419.87 419.87 0 0 1 0 104.12 419.49 419.49 0 0 1-26.79 98.24 419.18 419.18 0 0 1-27.34 52.62q-8.24 13.41-17.47 26.18a234.65 234.65 0 0 1-3.82 5.28z" fill="#0071C3" /><path d="M277.65 203.6l-2.48 1.87-0.27 0.22c2.32-1.74 3.16-2.38 3.22-2.43-0.12 0.11-0.32 0.22-0.47 0.34z" fill="#0071C3" /><path d="M677.51 434.13l-60.63-35-93-53.66c-6.55-3.79-13-7.94-19.82-11.3-31.29-15.51-68.3-13.08-96.17 8.46a90.47 90.47 0 0 0-35.46 72.09v182.82c0 12.5-0.11 24.9 3.35 37.13 8.79 31.1 35.8 57.48 68 63.45 23.63 4.38 45.87 0.22 66.65-11.78l76.95-44.43 83.87-48.42c15-8.69 28.23-19.16 37.71-34.08 17.32-27.27 17.29-63.16 2.08-91.25-7.64-14.11-19.8-25.88-33.54-34-13.52-8-33.51-3.51-41 10.77-7.63 14.43-3.67 32.51 10.76 41 1.49 0.88 2.95 1.78 4.36 2.76 5.9 4.08-4.64-4.13-1.1-0.86a77.83 77.83 0 0 1 6 6c4.59 5.25-3.63-5.38-1-1.4 0.64 1 1.33 1.95 2 2.95a62.15 62.15 0 0 1 4.27 8.27l-3-7.17a64.52 64.52 0 0 1 4.18 15.5l-1.07-8a65.64 65.64 0 0 1 0 16l1.07-8a64.44 64.44 0 0 1-4.18 15.49l3-7.16a63.4 63.4 0 0 1-4.27 8.27c-0.6 1-2.48 2.81-2.65 3.9 0 0 5.23-6.27 2.48-3.26-0.54 0.59-1 1.22-1.58 1.81q-1.63 1.8-3.42 3.46c-0.6 0.55-1.24 1.07-1.83 1.64-3 2.84 2.92-2.45 3.15-2.35-0.43-0.19-5.69 3.82-6.44 4.27-2.12 1.25-4.26 2.46-6.39 3.69l-38.13 22-103 59.48c-9.6 5.54-19.17 12-29.39 16.39l7.17-3a64.52 64.52 0 0 1-14.49 4l8-1.07a63.38 63.38 0 0 1-15.63 0.15l8 1.07a64.86 64.86 0 0 1-15.95-4.27l7.17 3a63.94 63.94 0 0 1-9.37-4.94c-0.79-0.51-1.59-1.21-2.43-1.65-2.48-1.32 6.33 5.29 2.8 2.19-1.34-1.18-2.69-2.31-4-3.55s-2.42-2.59-3.64-3.89c-2.57-2.76 2.39 3.08 2.46 3.29a11.91 11.91 0 0 0-1.74-2.43 61.9 61.9 0 0 1-5.48-10l3 7.17a63.7 63.7 0 0 1-4.28-15.68l1.07 8c-1-8.3-0.5-16.87-0.5-25.2V435.94c0-9.87-0.65-20.08 0.5-29.91l-1.07 8a63.62 63.62 0 0 1 4.23-15.68l-3 7.16a61.89 61.89 0 0 1 5.15-9.55c0.54-0.82 1.2-1.61 1.72-2.44 1.48-2.44-5.36 6.27-2.11 2.81 1.22-1.3 2.37-2.64 3.64-3.89s2.62-2.38 4-3.55c2.86-2.5-3.12 2.51-3.28 2.53 0.69-0.07 1.85-1.3 2.42-1.67a63.88 63.88 0 0 1 9.86-5.26l-7.17 3a64.42 64.42 0 0 1 15.95-4.27l-8 1.07a63.37 63.37 0 0 1 15.63 0.14l-8-1.07a65.08 65.08 0 0 1 14.49 4l-7.17-3c7.5 3.23 14.51 7.8 21.56 11.87l40 23.08 93.72 54.11 21.7 12.53c13.6 7.85 33.45 3.61 41-10.76s3.75-32.68-10.74-41.06z" fill="#FD9A16" /></svg>